<?xml version="1.0" encoding="UTF-8"?>
<svg width="253px" height="52px" viewBox="0 0 253 52" version="1.1" xmlns="http://www.w3.org/2000/svg" xmlns:xlink="http://www.w3.org/1999/xlink">
    <title>tt</title>
    <g id="tt" stroke="none" stroke-width="1" fill="none" fill-rule="evenodd">
        <text id="Richard-Afriyie" font-family="Roboto-Medium, Roboto" font-size="31" font-weight="400" letter-spacing="-0.756051" fill="#3D3D3D">
            <tspan x="55.5" y="36.7109375">Richard Afriyie</tspan>
        </text>
        <rect id="Rectangle-Copy" fill="#1B27C9" x="8" y="8.2890625" width="37" height="37"></rect>
        <g id="Group" transform="translate(14.937500, 15.226562)" fill-rule="nonzero">
            <path d="M9.48125,16.8747406 C9.48125,17.8226467 10.0588755,18.4210934 10.86875,18.2614269 L17.8073349,18.2614269 C18.8284625,18.2614269 19.65625,19.0892144 19.65625,20.110342 C19.65625,21.1314696 18.8284625,21.9592571 17.8073349,21.9592571 L10.86875,21.9592571 L10.86875,21.9592571 C8.10360052,22.1311253 5.8536936,19.9454492 5.78125,17.3369693 L5.78125,16.8747406 L5.78125,6.78125 C5.78125,6.22896525 6.22896525,5.78125 6.78125,5.78125 L19.19375,5.78125 L19.19375,5.78125 C21.9588995,5.78125 24.2088064,7.96692611 24.28125,10.8657665 L24.28125,20.0824625 C24.28125,21.1041893 23.4529768,21.9324625 22.43125,21.9324625 C21.4095232,21.9324625 20.58125,21.1041893 20.58125,20.0824625 L20.58125,10.8657665 L20.58125,10.8657665 C20.58125,10.0897286 20.0036245,9.4912819 19.19375,9.47908019 L9.48125,9.47908019 L9.48125,16.8747406 Z" id="Path-2" fill="#FFFFFF"></path>
            <path d="M16.1875,1.8389061 C16.1875,2.85450589 15.3641937,3.67781219 14.3485939,3.67781219 L3.7,3.67781219 L3.7,3.67781219 L3.7,14.3375 C3.7,15.3592268 2.87172679,16.1875 1.85,16.1875 C0.828273213,16.1875 -8.73736149e-15,15.3592268 -8.21565038e-15,14.3375 L-8.21565038e-15,1 C-8.28328576e-15,0.44771525 0.44771525,-9.14115362e-15 1,-9.24260668e-15 L14.3485939,-9.24260668e-15 C15.3641937,-9.87325855e-15 16.1875,0.823306303 16.1875,1.8389061 Z" id="Path-3" fill="#F8E05F"></path>
        </g>
    </g>
</svg>