<?xml version="1.0" encoding="UTF-8"?>
<svg width="300px" height="50px" viewBox="0 0 300 50" version="1.1" xmlns="http://www.w3.org/2000/svg" xmlns:xlink="http://www.w3.org/1999/xlink">
    <title>tt</title>
    <g id="tt" stroke="none" stroke-width="1" fill="none" fill-rule="evenodd">
        <g id="Group" transform="translate(4.177476, 10.645073)" fill="#1B27C9" fill-rule="nonzero">
            <path d="M14.033127,24.9068417 C14.033127,26.3011875 14.8823011,27.1814873 16.0729073,26.946622 L26.2718088,26.946622 C27.7738615,26.946622 28.9915159,28.1642763 28.9915159,29.6663291 C28.9915159,31.1683818 27.7738615,32.3860361 26.2718088,32.3860361 L16.0729073,32.3860361 L16.0729073,32.3860361 C12.007828,32.6388499 8.70021303,29.4237759 8.59371282,25.5867684 L8.59371282,24.9068417 L8.59371282,8.58859924 L28.3115891,8.58859924 C32.3766683,8.58859924 35.6842833,11.8036732 35.7907835,16.0677937 L35.7907835,29.6269149 C35.7907835,31.1289677 34.5731292,32.346622 33.0710765,32.346622 C31.5690237,32.346622 30.3513694,31.1289677 30.3513694,29.6269149 L30.3513694,16.0677937 L30.3513694,16.0677937 C30.3513694,14.9262617 29.5021953,14.0459618 28.3115891,14.0280134 L14.033127,14.0280134 L14.033127,24.9068417 Z" id="Path-2"></path>
            <path d="M23.7974369,2.70339779 C23.7974369,4.19644317 22.5870845,5.40679559 21.0940391,5.40679559 L5.43941415,5.40679559 L5.43941415,5.40679559 L5.43941415,21.0777298 C5.43941415,22.5797826 4.22175981,23.7974369 2.71970707,23.7974369 C1.21765433,23.7974369 4.16298773e-15,22.5797826 5.75539616e-15,21.0777298 L5.75539616e-15,7.67386155e-15 L5.75539616e-15,7.67386155e-15 L21.0940391,7.67386155e-15 C22.5870845,6.05497203e-15 23.7974369,1.21035242 23.7974369,2.70339779 Z" id="Path-3"></path>
        </g>
        <path d="M60.8318039,36.0201804 L60.8309039,30.9666804 L64.4865239,30.9657804 L64.4865239,30.9657804 L64.6829039,30.9639804 L68.1671639,36.0201804 L72.7031639,36.0201804 L68.6492039,30.2043804 L68.6855639,30.1881804 C69.7702162,29.7096573 70.6266498,29.0360441 71.2548647,28.1673407 L71.4071639,27.9461004 C72.0465239,26.9697804 72.3662039,25.8077004 72.3662039,24.4598604 C72.3662039,23.0947404 72.0465239,21.9197004 71.4071639,20.9347404 C70.7678039,19.9497804 69.8606039,19.1937804 68.6855639,18.6667404 C67.5105239,18.1397004 66.1108439,17.8761804 64.4865239,17.8761804 L64.4865239,17.8761804 L56.6327639,17.8761804 L56.6327639,36.0201804 L60.8318039,36.0201804 Z M60.8309039,21.2979804 L64.2532439,21.2976204 C65.5492439,21.2976204 66.5169239,21.5741004 67.1562839,22.1270604 C67.7956439,22.6800204 68.1153239,23.4576204 68.1153239,24.4598604 C68.1153239,25.4448204 67.7956439,26.2181004 67.1562839,26.7797004 C66.5169239,27.3413004 65.5492439,27.6221004 64.2532439,27.6221004 L64.2532439,27.6221004 L60.8309039,27.6222804 L60.8309039,21.2979804 Z M79.8830039,36.0201804 L79.8830039,17.8761804 L75.6839639,17.8761804 L75.6839639,36.0201804 L79.8830039,36.0201804 Z M92.8689239,36.3312204 C94.4586839,36.3312204 95.8886039,36.0547404 97.1586839,35.5017804 C98.4287639,34.9488204 99.4958039,34.1453004 100.359804,33.0912204 L100.359804,33.0912204 L97.6641239,30.6029004 C97.0420439,31.3286604 96.3508439,31.8686604 95.5905239,32.2229004 C94.8302039,32.5771404 94.0007639,32.7542604 93.1022039,32.7542604 C92.2554839,32.7542604 91.4778839,32.6160204 90.7694039,32.3395404 C90.0609239,32.0630604 89.4474839,31.6656204 88.9290839,31.1472204 C88.4106839,30.6288204 88.0089239,30.0153804 87.7238039,29.3069004 C87.4386839,28.5984204 87.2961239,27.8121804 87.2961239,26.9481804 C87.2961239,26.0841804 87.4386839,25.2979404 87.7238039,24.5894604 C88.0089239,23.8809804 88.4106839,23.2675404 88.9290839,22.7491404 C89.4474839,22.2307404 90.0609239,21.8333004 90.7694039,21.5568204 C91.4778839,21.2803404 92.2554839,21.1421004 93.1022039,21.1421004 C94.0007639,21.1421004 94.8302039,21.3192204 95.5905239,21.6734604 C96.3508439,22.0277004 97.0420439,22.5590604 97.6641239,23.2675404 L97.6641239,23.2675404 L100.359804,20.7792204 C99.4958039,19.7251404 98.4287639,18.9259404 97.1586839,18.3816204 C95.8886039,17.8373004 94.4673239,17.5651404 92.8948439,17.5651404 C91.4778839,17.5651404 90.1732439,17.7941004 88.9809239,18.2520204 C87.7886039,18.7099404 86.7474839,19.3622604 85.8575639,20.2089804 C84.9676439,21.0557004 84.2764439,22.0493004 83.7839639,23.1897804 C83.2914839,24.3302604 83.0452439,25.5830604 83.0452439,26.9481804 C83.0452439,28.3133004 83.2914839,29.5661004 83.7839639,30.7065804 C84.2764439,31.8470604 84.9633239,32.8406604 85.8446039,33.6873804 C86.7258839,34.5341004 87.7670039,35.1864204 88.9679639,35.6443404 C90.1689239,36.1022604 91.4692439,36.3312204 92.8689239,36.3312204 Z M107.384124,36.0201804 L107.383404,28.5816804 L115.626504,28.5816804 L115.626684,36.0201804 L119.825724,36.0201804 L119.825724,17.8761804 L115.626684,17.8761804 L115.626504,25.0302804 L107.383404,25.0302804 L107.384124,17.8761804 L103.185084,17.8761804 L103.185084,36.0201804 L107.384124,36.0201804 Z M126.046524,36.0201804 L127.663104,32.1330804 L136.073604,32.1330804 L137.684604,36.0201804 L142.091004,36.0201804 L133.978044,17.8761804 L129.830844,17.8761804 L121.743804,36.0201804 L126.046524,36.0201804 Z M134.753304,28.9443804 L128.988804,28.9443804 L131.876904,21.9999804 L134.753304,28.9443804 Z M148.182204,36.0201804 L148.182204,30.9666804 L151.836924,30.9657804 L151.836924,30.9657804 L152.033304,30.9639804 L155.517564,36.0201804 L160.053564,36.0201804 L155.999604,30.2043804 L156.035964,30.1881804 C157.120616,29.7096573 157.97705,29.0360441 158.605265,28.1673407 L158.757564,27.9461004 C159.396924,26.9697804 159.716604,25.8077004 159.716604,24.4598604 C159.716604,23.0947404 159.396924,21.9197004 158.757564,20.9347404 C158.118204,19.9497804 157.211004,19.1937804 156.035964,18.6667404 C154.860924,18.1397004 153.461244,17.8761804 151.836924,17.8761804 L151.836924,17.8761804 L143.983164,17.8761804 L143.983164,36.0201804 L148.182204,36.0201804 Z M148.182204,21.2979804 L151.603644,21.2976204 C152.899644,21.2976204 153.867324,21.5741004 154.506684,22.1270604 C155.146044,22.6800204 155.465724,23.4576204 155.465724,24.4598604 C155.465724,25.4448204 155.146044,26.2181004 154.506684,26.7797004 C153.867324,27.3413004 152.899644,27.6221004 151.603644,27.6221004 L151.603644,27.6221004 L148.182204,27.6222804 L148.182204,21.2979804 Z M171.276924,36.0201804 C173.246844,36.0201804 174.983484,35.6443404 176.486844,34.8926604 C177.990204,34.1409804 179.165244,33.0869004 180.011964,31.7304204 C180.858684,30.3739404 181.282044,28.7798604 181.282044,26.9481804 C181.282044,25.0992204 180.858684,23.5008204 180.011964,22.1529804 C179.165244,20.8051404 177.990204,19.7553804 176.486844,19.0037004 C174.983484,18.2520204 173.246844,17.8761804 171.276924,17.8761804 L171.276924,17.8761804 L163.034364,17.8761804 L163.034364,36.0201804 L171.276924,36.0201804 Z M171.069564,32.5728204 L167.233404,32.5728204 L167.233404,21.3235404 L171.069564,21.3235404 C172.279164,21.3235404 173.328924,21.5525004 174.218844,22.0104204 C175.108764,22.4683404 175.799964,23.1163404 176.292444,23.9544204 C176.784924,24.7925004 177.031164,25.7904204 177.031164,26.9481804 C177.031164,28.0886604 176.784924,29.0822604 176.292444,29.9289804 C175.799964,30.7757004 175.108764,31.4280204 174.218844,31.8859404 C173.328924,32.3438604 172.279164,32.5728204 171.069564,32.5728204 L171.069564,32.5728204 Z M193.697724,36.0201804 L195.314304,32.1330804 L203.724804,32.1330804 L205.335804,36.0201804 L209.742204,36.0201804 L201.629244,17.8761804 L197.482044,17.8761804 L189.395004,36.0201804 L193.697724,36.0201804 Z M202.404504,28.9443804 L196.640004,28.9443804 L199.528104,21.9999804 L202.404504,28.9443804 Z M215.833404,36.0201804 L215.833404,29.4114804 L224.231484,29.4105804 L224.231484,26.0409804 L215.833404,26.0418804 L215.833404,21.2457804 L225.346044,21.2457804 L225.346044,17.8761804 L211.634364,17.8761804 L211.634364,36.0201804 L215.833404,36.0201804 Z M232.396284,36.0201804 L232.396104,30.9666804 L236.051004,30.9657804 L236.051004,30.9657804 L236.247204,30.9639804 L239.731644,36.0201804 L244.267644,36.0201804 L240.213504,30.2043804 L240.250044,30.1881804 C241.334696,29.7096573 242.19113,29.0360441 242.819345,28.1673407 L242.971644,27.9461004 C243.611004,26.9697804 243.930684,25.8077004 243.930684,24.4598604 C243.930684,23.0947404 243.611004,21.9197004 242.971644,20.9347404 C242.332284,19.9497804 241.425084,19.1937804 240.250044,18.6667404 C239.075004,18.1397004 237.675324,17.8761804 236.051004,17.8761804 L236.051004,17.8761804 L228.197244,17.8761804 L228.197244,36.0201804 L232.396284,36.0201804 Z M232.396104,21.2979804 L235.817724,21.2976204 C237.113724,21.2976204 238.081404,21.5741004 238.720764,22.1270604 C239.360124,22.6800204 239.679804,23.4576204 239.679804,24.4598604 C239.679804,25.4448204 239.360124,26.2181004 238.720764,26.7797004 C238.081404,27.3413004 237.113724,27.6221004 235.817724,27.6221004 L235.817724,27.6221004 L232.396104,27.6222804 L232.396104,21.2979804 Z M251.447484,36.0201804 L251.447484,17.8761804 L247.248444,17.8761804 L247.248444,36.0201804 L251.447484,36.0201804 Z M264.459324,36.0201804 L264.458604,29.5977804 L271.509564,17.8761804 L267.388284,17.8761804 L262.530804,25.9311804 L257.694204,17.8761804 L253.235964,17.8761804 L260.260104,29.5545804 L260.260284,36.0201804 L264.459324,36.0201804 Z M277.471164,36.0201804 L277.471164,17.8761804 L273.272124,17.8761804 L273.272124,36.0201804 L277.471164,36.0201804 Z M295.822524,36.0201804 L295.822524,32.6505804 L285.947004,32.6505804 L285.947004,28.4520804 L294.371004,28.4515404 L294.371004,25.1856204 L285.947004,25.1859804 L285.947004,21.2457804 L295.485564,21.2457804 L295.485564,17.8761804 L281.773884,17.8761804 L281.773884,36.0201804 L295.822524,36.0201804 Z" id="RICHARDAFRIYIE" fill="#1B27C9" fill-rule="nonzero"></path>
    </g>
</svg>