<?xml version="1.0" encoding="UTF-8"?>
<svg width="114px" height="32px" viewBox="0 0 114 32" version="1.1" xmlns="http://www.w3.org/2000/svg" xmlns:xlink="http://www.w3.org/1999/xlink">
    <title>Artboard</title>
    <g id="Artboard" stroke="none" stroke-width="1" fill="none" fill-rule="evenodd">
        <circle id="Oval-Copy-3" fill="#F3F3F3" cx="17.8007812" cy="16" r="15.4614868"></circle>
        <g id="Group" transform="translate(8.606317, 7.508147)" fill="#1C1C1C" fill-rule="nonzero">
            <path d="M8.34692777,1.77635684e-15 C8.9878786,1.77635684e-15 9.50136761,0.080118853 9.88739481,0.240356559 C10.273422,0.400594265 10.5684051,0.611816696 10.772344,0.874023851 C11.005417,1.13623101 11.1729382,1.48948231 11.2749077,1.93377777 C11.3768771,2.37807323 11.4278618,2.96439756 11.4278618,3.69275077 L11.4278618,3.69275077 L11.427,7.516 L7.888,7.516 L7.88806525,2.64392215 C7.88806525,2.37588817 7.86475795,2.14048441 7.81814334,1.93771088 L7.77881227,1.79174889 C7.70597695,1.55867587 7.58215691,1.37658756 7.40735213,1.24548399 C7.23254736,1.11438041 6.99947434,1.04882862 6.70813305,1.04882862 C6.37309058,1.04882862 6.06718223,1.13623101 5.79040801,1.31103578 C5.51363379,1.48584055 5.2878443,1.72983887 5.11303953,2.04303075 C4.93823476,2.35622263 4.85083237,2.70947394 4.85083237,3.10278467 L4.85083237,3.10278467 L4.85083237,14.9929591 C4.85083237,15.648477 4.94551829,16.1328319 5.13489012,16.4460238 C5.32426196,16.7592157 5.66658797,16.9158116 6.16186815,16.9158116 L6.16186815,16.9158116 L6.16186815,17.3746741 C5.69572209,17.3309729 5.2441431,17.3091223 4.80713118,17.3091223 C4.13704623,17.3091223 3.51066247,17.3346147 2.9279799,17.3855994 C2.34529733,17.4365842 1.80631596,17.5130612 1.31103578,17.6150307 L1.31103578,17.6150307 L1.31103578,2.68762334 C1.31103578,2.03210545 1.21270809,1.54775057 1.01605273,1.23455869 C0.81939736,0.921366809 0.480713118,0.764770869 0,0.764770869 L0,0.764770869 L0,0.305908348 C0.45157899,0.34960954 0.903157979,0.371460137 1.35473697,0.371460137 C2.02482192,0.371460137 2.64756391,0.34960954 3.22296295,0.305908348 C3.79836198,0.262207155 4.34098513,0.182088302 4.85083237,0.0655517888 L4.85083237,0.0655517888 L4.85083237,1.83545009 C5.20044191,1.1799322 5.67751326,0.710144379 6.28204643,0.426086627 C6.88657959,0.142028876 7.57487337,1.77635684e-15 8.34692777,1.77635684e-15 Z" id="Combined-Shape"></path>
            <path d="M16.133162,1.77635684e-14 C16.7741129,1.77635684e-14 17.2876019,0.080118853 17.6736291,0.240356559 C18.0596563,0.400594265 18.3546393,0.611816696 18.5585782,0.874023851 C18.7916513,1.13623101 18.9591725,1.48948231 19.0611419,1.93377777 C19.1631114,2.37807323 19.2140961,2.96439756 19.2140961,3.69275077 L19.2140961,3.69275077 L19.2132343,7.622 L15.6742343,7.622 L15.6742995,2.64392215 C15.6742995,2.37588817 15.6509922,2.14048441 15.6043776,1.93771088 L15.5650465,1.79174889 C15.4922112,1.55867587 15.3683912,1.37658756 15.1935864,1.24548399 C15.0187816,1.11438041 14.7857086,1.04882862 14.4943673,1.04882862 C14.1593248,1.04882862 13.8534165,1.13623101 13.5766423,1.31103578 C13.2998681,1.48584055 13.0740786,1.72983887 12.8992738,2.04303075 C12.724469,2.35622263 12.6370666,2.70947394 12.6370666,3.10278467 L12.6370666,3.10278467 L12.6370666,14.9929591 C12.6370666,15.648477 12.7317526,16.1328319 12.9211244,16.4460238 C13.1104962,16.7592157 13.4528222,16.9158116 13.9481024,16.9158116 L13.9481024,16.9158116 L13.9481024,17.3746741 C13.4819564,17.3309729 13.0303774,17.3091223 12.5933654,17.3091223 C11.9232805,17.3091223 11.2968967,17.3346147 10.7142142,17.3855994 C10.1315316,17.4365842 9.59255022,17.5130612 9.09727004,17.6150307 L9.09727004,17.6150307 L9.09727004,2.68762334 C9.09727004,2.03210545 8.99894236,1.54775057 8.80228699,1.23455869 C8.60563162,0.921366809 8.26694738,0.764770869 7.78623426,0.764770869 L7.78623426,0.764770869 L7.78623426,0.305908348 C8.23781325,0.34960954 8.68939224,0.371460137 9.14097123,0.371460137 C9.81105618,0.371460137 10.4337982,0.34960954 11.0091972,0.305908348 C11.5845962,0.262207155 12.1272194,0.182088302 12.6370666,0.0655517888 L12.6370666,0.0655517888 L12.6370666,1.83545009 C12.9866762,1.1799322 13.4637475,0.710144379 14.0682807,0.426086627 C14.6728139,0.142028876 15.3611076,1.77635684e-14 16.133162,1.77635684e-14 Z" id="Combined-Shape-Copy" transform="translate(13.500165, 8.807515) scale(-1, -1) translate(-13.500165, -8.807515) "></path>
        </g>
        <path d="M46.5996258,23.2183144 L46.5996258,22.7787096 C45.9437076,22.7787096 45.4692135,22.6600861 45.1761436,22.4228391 C44.8830737,22.185592 44.7365388,21.7320315 44.7365388,21.0621575 L44.7365388,21.0621575 L44.7365388,15.0960924 C44.7365388,14.8588454 44.7714281,14.6181094 44.8412066,14.3738845 C44.9109852,14.1296596 45.015653,13.9098572 45.1552101,13.7144773 C45.2947671,13.5190974 45.4587467,13.3446511 45.6471488,13.1911383 C45.8355508,13.0376255 46.0344197,12.9329577 46.2437553,12.8771348 C46.4391352,12.7934006 46.6484708,12.7654892 46.8717621,12.7934006 C46.592648,12.9887805 46.3554009,13.2295165 46.160021,13.5156085 C45.9646411,13.8017005 45.8669512,14.16106 45.8669512,14.5936869 C45.8669512,15.0263139 46.016975,15.3752066 46.3170227,15.640365 C46.6170705,15.9055235 47.0462085,16.0381027 47.6044368,16.0381027 C48.1347537,16.0381027 48.5673806,15.8636563 48.9023176,15.5147636 C49.2372546,15.1658709 49.4047231,14.6983547 49.4047231,14.112215 C49.4047231,13.7912337 49.3454114,13.4737414 49.2267878,13.1597379 C49.1081643,12.8457345 48.9092955,12.5875539 48.6301813,12.3851961 C48.3510672,12.1828384 47.9672852,12.0816595 47.4788354,12.0816595 C47.0601642,12.0816595 46.6763822,12.151438 46.3274895,12.2909951 C45.9785968,12.4305522 45.6680823,12.629421 45.395946,12.8876016 C45.1238097,13.1457822 44.9040073,13.4632746 44.7365388,13.8400787 L44.7365388,13.8400787 L44.7365388,12.1444602 C44.248089,12.2421501 43.7212611,12.3154176 43.1560549,12.3642626 C42.5908487,12.4131076 41.9802865,12.43753 41.3243682,12.43753 C40.905697,12.43753 40.47307,12.4165965 40.0264874,12.3747294 L40.0264874,12.3747294 L40.0264874,12.8143342 C40.5009815,12.8143342 40.8289406,12.964358 41.0103648,13.2644057 C41.191789,13.5644535 41.2825011,14.0284807 41.2825011,14.6564876 L41.2825011,14.6564876 L41.2825011,21.2714932 C41.2825011,21.8576329 41.1883001,22.2553706 40.999898,22.4647062 C40.811496,22.6740418 40.4870258,22.7787096 40.0264874,22.7787096 L40.0264874,22.7787096 L40.0264874,23.2183144 C40.333513,23.2043587 40.7940513,23.1869141 41.4081025,23.1659805 C42.0221536,23.1450469 42.6292269,23.1345802 43.2293224,23.1345802 C43.8991963,23.1345802 44.5481368,23.1450469 45.1761436,23.1659805 C45.8041505,23.1869141 46.2786445,23.2043587 46.5996258,23.2183144 L46.5996258,23.2183144 Z" id="Path" fill="#F3F3F3" fill-rule="nonzero"></path>
        <path d="M55.9131597,23.2183144 L55.9131597,22.7787096 C55.4526213,22.7787096 55.13164,22.6740418 54.9502158,22.4647062 C54.7687916,22.2553706 54.6780795,21.8576329 54.6780795,21.2714932 L54.6780795,21.2714932 L54.6780795,12.1444602 C54.1896297,12.2421501 53.6628018,12.3154176 53.0975956,12.3642626 C52.5323894,12.4131076 51.9218272,12.43753 51.2659089,12.43753 C50.8472377,12.43753 50.4146107,12.4165965 49.9680281,12.3747294 L49.9680281,12.3747294 L49.9680281,12.8143342 C50.4564779,12.8143342 50.7879259,12.964358 50.9623723,13.2644057 C51.1368186,13.5644535 51.2240418,14.0284807 51.2240418,14.6564876 L51.2240418,14.6564876 L51.2240418,21.2714932 C51.2240418,21.8576329 51.1298408,22.2553706 50.9414387,22.4647062 C50.7530367,22.6740418 50.4285665,22.7787096 49.9680281,22.7787096 L49.9680281,22.7787096 L49.9680281,23.2183144 C50.2750537,23.2043587 50.7181474,23.1869141 51.2973093,23.1659805 C51.8764712,23.1450469 52.4451663,23.1345802 53.0033946,23.1345802 C53.5755786,23.1345802 54.1372958,23.1450469 54.6885463,23.1659805 C55.2397968,23.1869141 55.6480012,23.2043587 55.9131597,23.2183144 L55.9131597,23.2183144 Z" id="Path" fill="#F3F3F3" fill-rule="nonzero"></path>
        <path d="M61.9365826,23.5113843 C62.7599693,23.5113843 63.4612437,23.3404269 64.0404055,22.998512 C64.6195674,22.6565972 65.0870836,22.2169924 65.4429542,21.6796976 C65.7988247,21.1424029 66.0604943,20.6016192 66.2279627,20.0573466 L66.2279627,20.0573466 L65.8720922,19.9317452 C65.5790223,20.3643721 65.2685078,20.6923313 64.9405487,20.9156226 C64.6125896,21.1389139 64.305564,21.2854489 64.019472,21.3552274 C63.73338,21.4250059 63.4786883,21.4598952 63.255397,21.4598952 C62.82277,21.4598952 62.4006098,21.3482495 61.9889165,21.1249582 C61.5772231,20.9016669 61.2353082,20.5004403 60.9631719,19.9212784 C60.6910356,19.3421165 60.5549675,18.5431523 60.5549675,17.5243856 C60.5549675,16.9242901 60.6003235,16.3346615 60.6910356,15.7554996 C60.7817477,15.1763377 60.9247937,14.6529987 61.1201736,14.1854825 C61.3155536,13.7179662 61.5737342,13.3446511 61.8947154,13.0655369 C62.2156967,12.7864227 62.6134344,12.6468657 63.0879285,12.6468657 C63.3251755,12.6468657 63.5275333,12.6817549 63.6950018,12.7515335 C63.8624703,12.821312 64.0020273,12.9050463 64.113673,13.0027362 C63.6810461,13.1143819 63.3077309,13.3411621 62.9937274,13.683077 C62.679724,14.0249918 62.5227223,14.4401741 62.5227223,14.9286239 C62.5227223,15.4589408 62.6832129,15.8845899 63.0041942,16.2055712 C63.3251755,16.5265525 63.7647803,16.6870431 64.3230086,16.6870431 C64.8672812,16.6870431 65.3138639,16.5056189 65.6627566,16.1427705 C66.0116493,15.7799221 66.1860956,15.3263616 66.1860956,14.782089 C66.1860956,14.3215506 66.07445,13.9168351 65.8511586,13.5679424 C65.6278673,13.2190497 65.3347974,12.9329577 64.971949,12.7096663 C64.6788792,12.5282421 64.3020751,12.3782183 63.8415367,12.2595948 C63.3809983,12.1409712 62.8576593,12.0816595 62.2715196,12.0816595 C61.2667086,12.0816595 60.3630765,12.2875062 59.5606233,12.6991996 C58.7581701,13.1108929 58.1266743,13.7423887 57.6661359,14.5936869 C57.2055976,15.4449851 56.9753284,16.5195746 56.9753284,17.8174554 C56.9753284,19.1851148 57.1986197,20.2876157 57.6452024,21.1249582 C58.091785,21.9623007 58.6883915,22.569374 59.4350219,22.9461781 C60.1816523,23.3229822 61.0155058,23.5113843 61.9365826,23.5113843 Z" id="Path" fill="#F3F3F3" fill-rule="nonzero"></path>
        <path d="M79.4186979,23.2183144 L79.4186979,22.7787096 C78.9581595,22.7787096 78.6336893,22.6740418 78.4452872,22.4647062 C78.2568852,22.2553706 78.1626842,21.8576329 78.1626842,21.2714932 L78.1626842,21.2714932 L78.1626842,15.6194314 C78.1626842,14.9076903 78.1138392,14.3424842 78.0161492,13.9238129 C77.9184593,13.5051417 77.7579686,13.1632269 77.5346773,12.8980684 C77.3392974,12.6608214 77.0566943,12.4654415 76.686868,12.3119287 C76.3170418,12.1584159 75.8181252,12.0816595 75.1901184,12.0816595 C74.4504659,12.0816595 73.7910587,12.2142387 73.2118968,12.4793972 C72.6327349,12.7445556 72.1687076,13.1841604 71.8198149,13.7982116 L71.8198149,13.7982116 L71.8198149,6.84826902 C71.3453208,6.94595897 70.8254707,7.01922644 70.2602646,7.06807142 C69.6950584,7.1169164 69.0844962,7.14133888 68.4285779,7.14133888 C68.0099066,7.14133888 67.5772797,7.12040532 67.130697,7.0785382 L67.130697,7.0785382 L67.130697,7.518143 C67.6051911,7.518143 67.9331503,7.66816686 68.1145745,7.96821458 C68.2959987,8.2682623 68.3867108,8.73228959 68.3867108,9.36029644 L68.3867108,9.36029644 L68.3867108,21.2714932 C68.3867108,21.8576329 68.2925097,22.2553706 68.1041077,22.4647062 C67.9157056,22.6740418 67.5912354,22.7787096 67.130697,22.7787096 L67.130697,22.7787096 L67.130697,23.2183144 C67.4237669,23.2043587 67.8633717,23.1869141 68.4495114,23.1659805 C69.0356512,23.1450469 69.6078352,23.1345802 70.1660635,23.1345802 C70.6963804,23.1345802 71.2127416,23.1450469 71.7151471,23.1659805 C72.2175526,23.1869141 72.6013346,23.2043587 72.866493,23.2183144 L72.866493,23.2183144 L72.866493,22.7787096 C72.4896889,22.7787096 72.2210415,22.6740418 72.0605509,22.4647062 C71.9000602,22.2553706 71.8198149,21.8576329 71.8198149,21.2714932 L71.8198149,21.2714932 L71.8198149,14.9914246 C71.8198149,14.6146205 71.9035492,14.2831724 72.0710177,13.9970804 C72.2384861,13.7109884 72.4547996,13.4876971 72.7199581,13.3272064 C72.9851165,13.1667158 73.2712085,13.0864705 73.5782341,13.0864705 C73.871304,13.0864705 74.0980842,13.1457822 74.2585749,13.2644057 C74.4190655,13.3830293 74.5342001,13.5539867 74.6039786,13.777278 C74.6737572,14.0005693 74.7086465,14.2727056 74.7086465,14.5936869 L74.7086465,14.5936869 L74.7086465,21.2714932 C74.7086465,21.8576329 74.635379,22.2553706 74.4888441,22.4647062 C74.3423091,22.6740418 74.0736617,22.7787096 73.6829019,22.7787096 L73.6829019,22.7787096 L73.6829019,23.2183144 C73.9480604,23.2043587 74.349287,23.1869141 74.8865817,23.1659805 C75.4238765,23.1450469 75.9786159,23.1345802 76.5507999,23.1345802 C77.0811168,23.1345802 77.6219005,23.1450469 78.1731509,23.1659805 C78.7244014,23.1869141 79.1395837,23.2043587 79.4186979,23.2183144 L79.4186979,23.2183144 Z" id="Path" fill="#F3F3F3" fill-rule="nonzero"></path>
        <path d="M89.8890768,23.5113843 C90.6287293,23.5113843 91.2881365,23.3788051 91.8672984,23.1136466 C92.4464602,22.8484882 92.9035097,22.4019055 93.2384467,21.7738986 L93.2384467,21.7738986 L93.2384467,23.4485836 C93.7408522,23.3369379 94.2711691,23.2601815 94.8293974,23.2183144 C95.3876257,23.1764473 95.9877211,23.1555137 96.6296837,23.1555137 C97.0623106,23.1555137 97.4949376,23.1764473 97.9275645,23.2183144 L97.9275645,23.2183144 L97.9275645,22.7787096 C97.4670262,22.7787096 97.1460449,22.6286858 96.9646207,22.328638 C96.7831965,22.0285903 96.6924844,21.564563 96.6924844,20.9365562 L96.6924844,20.9365562 L96.6924844,12.1444602 C96.2179903,12.2421501 95.6946513,12.3154176 95.1224672,12.3642626 C94.5502832,12.4131076 93.9432099,12.43753 93.3012474,12.43753 C92.8825761,12.43753 92.4499492,12.4165965 92.0033665,12.3747294 L92.0033665,12.3747294 L92.0033665,12.8143342 C92.4778606,12.8143342 92.8023308,12.964358 92.9767772,13.2644057 C93.1512235,13.5644535 93.2384467,14.0284807 93.2384467,14.6564876 L93.2384467,14.6564876 L93.2384467,20.6016192 C93.2384467,20.9644676 93.1582014,21.2889378 92.9977107,21.5750298 C92.8372201,21.8611218 92.6278845,22.0844131 92.3697039,22.2449038 C92.1115233,22.4053944 91.8289202,22.4856397 91.5218946,22.4856397 C91.2288247,22.4856397 91.0020445,22.426328 90.8415538,22.3077045 C90.6810632,22.189081 90.5659286,22.0181235 90.4961501,21.7948322 C90.4263715,21.5715409 90.3914823,21.3063824 90.3914823,20.9993569 L90.3914823,20.9993569 L90.3914823,12.1444602 C89.9169882,12.2421501 89.3936491,12.3154176 88.8214651,12.3642626 C88.2492811,12.4131076 87.6422078,12.43753 87.0002452,12.43753 C86.581574,12.43753 86.148947,12.4165965 85.7023644,12.3747294 L85.7023644,12.3747294 L85.7023644,12.8143342 C86.1768585,12.8143342 86.5013287,12.964358 86.675775,13.2644057 C86.8502214,13.5644535 86.9374445,14.0284807 86.9374445,14.6564876 L86.9374445,14.6564876 L86.9374445,19.9736123 C86.9374445,20.6713977 86.9862895,21.233115 87.0839795,21.6587641 C87.1816694,22.0844131 87.3421601,22.4228391 87.5654514,22.6740418 C87.7608313,22.9252445 88.0434344,23.1276023 88.4132607,23.2811151 C88.7830869,23.4346279 89.2750256,23.5113843 89.8890768,23.5113843 Z" id="Path" fill="#F3F3F3" fill-rule="nonzero"></path>
        <path d="M104.732296,23.2183144 L104.732296,22.7787096 C104.271757,22.7787096 103.950776,22.6740418 103.769352,22.4647062 C103.587928,22.2553706 103.497216,21.8576329 103.497216,21.2714932 L103.497216,21.2714932 L103.497216,12.1444602 C103.008766,12.2421501 102.481938,12.3154176 101.916732,12.3642626 C101.351526,12.4131076 100.740963,12.43753 100.085045,12.43753 C99.6663739,12.43753 99.2337469,12.4165965 98.7871643,12.3747294 L98.7871643,12.3747294 L98.7871643,12.8143342 C99.275614,12.8143342 99.6070621,12.964358 99.7815084,13.2644057 C99.9559548,13.5644535 100.043178,14.0284807 100.043178,14.6564876 L100.043178,14.6564876 L100.043178,21.2714932 C100.043178,21.8576329 99.9489769,22.2553706 99.7605749,22.4647062 C99.5721728,22.6740418 99.2477026,22.7787096 98.7871643,22.7787096 L98.7871643,22.7787096 L98.7871643,23.2183144 C99.0941898,23.2043587 99.5372836,23.1869141 100.116445,23.1659805 C100.695607,23.1450469 101.264302,23.1345802 101.822531,23.1345802 C102.394715,23.1345802 102.956432,23.1450469 103.507682,23.1659805 C104.058933,23.1869141 104.467137,23.2043587 104.732296,23.2183144 L104.732296,23.2183144 Z" id="Path" fill="#F3F3F3" fill-rule="nonzero"></path>
        <circle id="Oval" fill="#F3F3F3" cx="83.1612352" cy="21.3664723" r="1.85184212"></circle>
        <circle id="Oval-Copy" fill="#F3F3F3" cx="101.387897" cy="9.31408648" r="1.85184212"></circle>
        <circle id="Oval-Copy-2" fill="#F3F3F3" cx="52.9405939" cy="9.31408648" r="1.85184212"></circle>
    </g>
</svg>