<?xml version="1.0" encoding="UTF-8"?>
<svg width="115px" height="46px" viewBox="0 0 115 46" version="1.1" xmlns="http://www.w3.org/2000/svg" xmlns:xlink="http://www.w3.org/1999/xlink">
    <title>Artboard</title>
    <g id="Artboard" stroke="none" stroke-width="1" fill="none" fill-rule="evenodd">
        <path d="M51.0794678,31.027 L51.0794678,30.607 C50.4528011,30.607 49.9994678,30.4936667 49.7194678,30.267 C49.4394678,30.0403333 49.2994678,29.607 49.2994678,28.967 L49.2994678,28.967 L49.2994678,23.267 C49.2994678,23.0403333 49.3328011,22.8103333 49.3994678,22.577 C49.4661344,22.3436667 49.5661344,22.1336667 49.6994678,21.947 C49.8328011,21.7603333 49.9894678,21.5936667 50.1694678,21.447 C50.3494678,21.3003333 50.5394678,21.2003333 50.7394678,21.147 C50.9261344,21.067 51.1261344,21.0403333 51.3394678,21.067 C51.0728011,21.2536667 50.8461344,21.4836667 50.6594678,21.757 C50.4728011,22.0303333 50.3794678,22.3736667 50.3794678,22.787 C50.3794678,23.2003333 50.5228011,23.5336667 50.8094678,23.787 C51.0961344,24.0403333 51.5061344,24.167 52.0394678,24.167 C52.5461344,24.167 52.9594678,24.0003333 53.2794678,23.667 C53.5994678,23.3336667 53.7594678,22.887 53.7594678,22.327 C53.7594678,22.0203333 53.7028011,21.717 53.5894678,21.417 C53.4761344,21.117 53.2861344,20.8703333 53.0194678,20.677 C52.7528011,20.4836667 52.3861344,20.387 51.9194678,20.387 C51.5194678,20.387 51.1528011,20.4536667 50.8194678,20.587 C50.4861344,20.7203333 50.1894678,20.9103333 49.9294678,21.157 C49.6694678,21.4036667 49.4594678,21.707 49.2994678,22.067 L49.2994678,22.067 L49.2994678,20.447 C48.8328011,20.5403333 48.3294678,20.6103333 47.7894678,20.657 C47.2494678,20.7036667 46.6661344,20.727 46.0394678,20.727 C45.6394678,20.727 45.2261344,20.707 44.7994678,20.667 L44.7994678,20.667 L44.7994678,21.087 C45.2528011,21.087 45.5661344,21.2303333 45.7394678,21.517 C45.9128011,21.8036667 45.9994678,22.247 45.9994678,22.847 L45.9994678,22.847 L45.9994678,29.167 C45.9994678,29.727 45.9094678,30.107 45.7294678,30.307 C45.5494678,30.507 45.2394678,30.607 44.7994678,30.607 L44.7994678,30.607 L44.7994678,31.027 C45.0928011,31.0136667 45.5328011,30.997 46.1194678,30.977 C46.7061344,30.957 47.2861344,30.947 47.8594678,30.947 C48.4994678,30.947 49.1194678,30.957 49.7194678,30.977 C50.3194678,30.997 50.7728011,31.0136667 51.0794678,31.027 L51.0794678,31.027 Z" id="Path-Copy" fill="#1B27C9" fill-rule="nonzero"></path>
        <path d="M59.9776514,31.027 L59.9776514,30.607 C59.5376514,30.607 59.2309847,30.507 59.0576514,30.307 C58.884318,30.107 58.7976514,29.727 58.7976514,29.167 L58.7976514,29.167 L58.7976514,20.447 C58.3309847,20.5403333 57.8276514,20.6103333 57.2876514,20.657 C56.7476514,20.7036667 56.164318,20.727 55.5376514,20.727 C55.1376514,20.727 54.724318,20.707 54.2976514,20.667 L54.2976514,20.667 L54.2976514,21.087 C54.764318,21.087 55.0809847,21.2303333 55.2476514,21.517 C55.414318,21.8036667 55.4976514,22.247 55.4976514,22.847 L55.4976514,22.847 L55.4976514,29.167 C55.4976514,29.727 55.4076514,30.107 55.2276514,30.307 C55.0476514,30.507 54.7376514,30.607 54.2976514,30.607 L54.2976514,30.607 L54.2976514,31.027 C54.5909847,31.0136667 55.014318,30.997 55.5676514,30.977 C56.1209847,30.957 56.664318,30.947 57.1976514,30.947 C57.744318,30.947 58.2809847,30.957 58.8076514,30.977 C59.334318,30.997 59.724318,31.0136667 59.9776514,31.027 L59.9776514,31.027 Z" id="Path-Copy-2" fill="#1B27C9" fill-rule="nonzero"></path>
        <path d="M65.7324512,31.307 C66.5191178,31.307 67.1891178,31.1436667 67.7424512,30.817 C68.2957845,30.4903333 68.7424512,30.0703333 69.0824512,29.557 C69.4224512,29.0436667 69.6724512,28.527 69.8324512,28.007 L69.8324512,28.007 L69.4924512,27.887 C69.2124512,28.3003333 68.9157845,28.6136667 68.6024512,28.827 C68.2891178,29.0403333 67.9957845,29.1803333 67.7224512,29.247 C67.4491178,29.3136667 67.2057845,29.347 66.9924512,29.347 C66.5791178,29.347 66.1757845,29.2403333 65.7824512,29.027 C65.3891178,28.8136667 65.0624512,28.4303333 64.8024512,27.877 C64.5424512,27.3236667 64.4124512,26.5603333 64.4124512,25.587 C64.4124512,25.0136667 64.4557845,24.4503333 64.5424512,23.897 C64.6291178,23.3436667 64.7657845,22.8436667 64.9524512,22.397 C65.1391178,21.9503333 65.3857845,21.5936667 65.6924512,21.327 C65.9991178,21.0603333 66.3791178,20.927 66.8324512,20.927 C67.0591178,20.927 67.2524512,20.9603333 67.4124512,21.027 C67.5724512,21.0936667 67.7057845,21.1736667 67.8124512,21.267 C67.3991178,21.3736667 67.0424512,21.5903333 66.7424512,21.917 C66.4424512,22.2436667 66.2924512,22.6403333 66.2924512,23.107 C66.2924512,23.6136667 66.4457845,24.0203333 66.7524512,24.327 C67.0591178,24.6336667 67.4791178,24.787 68.0124512,24.787 C68.5324512,24.787 68.9591178,24.6136667 69.2924512,24.267 C69.6257845,23.9203333 69.7924512,23.487 69.7924512,22.967 C69.7924512,22.527 69.6857845,22.1403333 69.4724512,21.807 C69.2591178,21.4736667 68.9791178,21.2003333 68.6324512,20.987 C68.3524512,20.8136667 67.9924512,20.6703333 67.5524512,20.557 C67.1124512,20.4436667 66.6124512,20.387 66.0524512,20.387 C65.0924512,20.387 64.2291178,20.5836667 63.4624512,20.977 C62.6957845,21.3703333 62.0924512,21.9736667 61.6524512,22.787 C61.2124512,23.6003333 60.9924512,24.627 60.9924512,25.867 C60.9924512,27.1736667 61.2057845,28.227 61.6324512,29.027 C62.0591178,29.827 62.6291178,30.407 63.3424512,30.767 C64.0557845,31.127 64.8524512,31.307 65.7324512,31.307 Z" id="Path-Copy-3" fill="#1B27C9" fill-rule="nonzero"></path>
        <path d="M82.4349268,31.027 L82.4349268,30.607 C81.9949268,30.607 81.6849268,30.507 81.5049268,30.307 C81.3249268,30.107 81.2349268,29.727 81.2349268,29.167 L81.2349268,29.167 L81.2349268,23.767 C81.2349268,23.087 81.1882601,22.547 81.0949268,22.147 C81.0015934,21.747 80.8482601,21.4203333 80.6349268,21.167 C80.4482601,20.9403333 80.1782601,20.7536667 79.8249268,20.607 C79.4715934,20.4603333 78.9949268,20.387 78.3949268,20.387 C77.6882601,20.387 77.0582601,20.5136667 76.5049268,20.767 C75.9515934,21.0203333 75.5082601,21.4403333 75.1749268,22.027 L75.1749268,22.027 L75.1749268,15.387 C74.7215934,15.4803333 74.2249268,15.5503333 73.6849268,15.597 C73.1449268,15.6436667 72.5615934,15.667 71.9349268,15.667 C71.5349268,15.667 71.1215934,15.647 70.6949268,15.607 L70.6949268,15.607 L70.6949268,16.027 C71.1482601,16.027 71.4615934,16.1703333 71.6349268,16.457 C71.8082601,16.7436667 71.8949268,17.187 71.8949268,17.787 L71.8949268,17.787 L71.8949268,29.167 C71.8949268,29.727 71.8049268,30.107 71.6249268,30.307 C71.4449268,30.507 71.1349268,30.607 70.6949268,30.607 L70.6949268,30.607 L70.6949268,31.027 C70.9749268,31.0136667 71.3949268,30.997 71.9549268,30.977 C72.5149268,30.957 73.0615934,30.947 73.5949268,30.947 C74.1015934,30.947 74.5949268,30.957 75.0749268,30.977 C75.5549268,30.997 75.9215934,31.0136667 76.1749268,31.027 L76.1749268,31.027 L76.1749268,30.607 C75.8149268,30.607 75.5582601,30.507 75.4049268,30.307 C75.2515934,30.107 75.1749268,29.727 75.1749268,29.167 L75.1749268,29.167 L75.1749268,23.167 C75.1749268,22.807 75.2549268,22.4903333 75.4149268,22.217 C75.5749268,21.9436667 75.7815934,21.7303333 76.0349268,21.577 C76.2882601,21.4236667 76.5615934,21.347 76.8549268,21.347 C77.1349268,21.347 77.3515934,21.4036667 77.5049268,21.517 C77.6582601,21.6303333 77.7682601,21.7936667 77.8349268,22.007 C77.9015934,22.2203333 77.9349268,22.4803333 77.9349268,22.787 L77.9349268,22.787 L77.9349268,29.167 C77.9349268,29.727 77.8649268,30.107 77.7249268,30.307 C77.5849268,30.507 77.3282601,30.607 76.9549268,30.607 L76.9549268,30.607 L76.9549268,31.027 C77.2082601,31.0136667 77.5915934,30.997 78.1049268,30.977 C78.6182601,30.957 79.1482601,30.947 79.6949268,30.947 C80.2015934,30.947 80.7182601,30.957 81.2449268,30.977 C81.7715934,30.997 82.1682601,31.0136667 82.4349268,31.027 L82.4349268,31.027 Z" id="Path-Copy-4" fill="#1B27C9" fill-rule="nonzero"></path>
        <path d="M92.4383643,31.307 C93.1450309,31.307 93.7750309,31.1803333 94.3283643,30.927 C94.8816976,30.6736667 95.3183643,30.247 95.6383643,29.647 L95.6383643,29.647 L95.6383643,31.247 C96.1183643,31.1403333 96.6250309,31.067 97.1583643,31.027 C97.6916976,30.987 98.2650309,30.967 98.8783643,30.967 C99.2916976,30.967 99.7050309,30.987 100.118364,31.027 L100.118364,31.027 L100.118364,30.607 C99.6783643,30.607 99.3716976,30.4636667 99.1983643,30.177 C99.0250309,29.8903333 98.9383643,29.447 98.9383643,28.847 L98.9383643,28.847 L98.9383643,20.447 C98.4850309,20.5403333 97.9850309,20.6103333 97.4383643,20.657 C96.8916976,20.7036667 96.3116976,20.727 95.6983643,20.727 C95.2983643,20.727 94.8850309,20.707 94.4583643,20.667 L94.4583643,20.667 L94.4583643,21.087 C94.9116976,21.087 95.2216976,21.2303333 95.3883643,21.517 C95.5550309,21.8036667 95.6383643,22.247 95.6383643,22.847 L95.6383643,22.847 L95.6383643,28.527 C95.6383643,28.8736667 95.5616976,29.1836667 95.4083643,29.457 C95.2550309,29.7303333 95.0550309,29.9436667 94.8083643,30.097 C94.5616976,30.2503333 94.2916976,30.327 93.9983643,30.327 C93.7183643,30.327 93.5016976,30.2703333 93.3483643,30.157 C93.1950309,30.0436667 93.0850309,29.8803333 93.0183643,29.667 C92.9516976,29.4536667 92.9183643,29.2003333 92.9183643,28.907 L92.9183643,28.907 L92.9183643,20.447 C92.4650309,20.5403333 91.9650309,20.6103333 91.4183643,20.657 C90.8716976,20.7036667 90.2916976,20.727 89.6783643,20.727 C89.2783643,20.727 88.8650309,20.707 88.4383643,20.667 L88.4383643,20.667 L88.4383643,21.087 C88.8916976,21.087 89.2016976,21.2303333 89.3683643,21.517 C89.5350309,21.8036667 89.6183643,22.247 89.6183643,22.847 L89.6183643,22.847 L89.6183643,27.927 C89.6183643,28.5936667 89.6650309,29.1303333 89.7583643,29.537 C89.8516976,29.9436667 90.0050309,30.267 90.2183643,30.507 C90.4050309,30.747 90.6750309,30.9403333 91.0283643,31.087 C91.3816976,31.2336667 91.8516976,31.307 92.4383643,31.307 Z" id="Path-Copy-5" fill="#1B27C9" fill-rule="nonzero"></path>
        <path d="M106.619629,31.027 L106.619629,30.607 C106.179629,30.607 105.872962,30.507 105.699629,30.307 C105.526296,30.107 105.439629,29.727 105.439629,29.167 L105.439629,29.167 L105.439629,20.447 C104.972962,20.5403333 104.469629,20.6103333 103.929629,20.657 C103.389629,20.7036667 102.806296,20.727 102.179629,20.727 C101.779629,20.727 101.366296,20.707 100.939629,20.667 L100.939629,20.667 L100.939629,21.087 C101.406296,21.087 101.722962,21.2303333 101.889629,21.517 C102.056296,21.8036667 102.139629,22.247 102.139629,22.847 L102.139629,22.847 L102.139629,29.167 C102.139629,29.727 102.049629,30.107 101.869629,30.307 C101.689629,30.507 101.379629,30.607 100.939629,30.607 L100.939629,30.607 L100.939629,31.027 C101.232962,31.0136667 101.656296,30.997 102.209629,30.977 C102.762962,30.957 103.306296,30.947 103.839629,30.947 C104.386296,30.947 104.922962,30.957 105.449629,30.977 C105.976296,30.997 106.366296,31.0136667 106.619629,31.027 L106.619629,31.027 Z" id="Path-Copy-6" fill="#1B27C9" fill-rule="nonzero"></path>
        <circle id="Oval-Copy-3" fill="#1B27C9" cx="25.043457" cy="23" r="16.6630859"></circle>
        <path d="M22.51683,30.0235 C21.9214966,30.0235 21.4876633,29.9158333 21.21533,29.7005 C20.9429966,29.4851667 20.80683,29.0735 20.80683,28.4655 L20.80683,18.1075 C20.80683,17.8795 20.8416633,17.6546667 20.91133,17.433 C20.9809966,17.2113333 21.0791633,17.0055 21.20583,16.8155 C21.3324966,16.6255 21.4844966,16.4608333 21.66183,16.3215 C21.8391633,16.1821667 22.0291633,16.0871667 22.23183,16.0365 C22.4091633,15.9605 22.59283,15.9351667 22.78283,15.9605 C22.5294966,16.1378333 22.31733,16.3531667 22.14633,16.6065 C21.97533,16.8598333 21.88983,17.1828333 21.88983,17.5755 C21.88983,17.9681667 22.02283,18.2816667 22.28883,18.516 C22.55483,18.7503333 22.9411633,18.8675 23.44783,18.8675 C23.9291633,18.8675 24.3186633,18.7091667 24.61633,18.3925 C24.9139966,18.0758333 25.06283,17.6578333 25.06283,17.1385 C25.06283,16.8598333 25.00583,16.578 24.89183,16.293 C24.77783,16.008 24.5941633,15.7736667 24.34083,15.59 C24.0874966,15.4063333 23.7454966,15.3145 23.31483,15.3145 C22.93483,15.3145 22.58333,15.381 22.26033,15.514 C21.93733,15.647 21.65233,15.8338333 21.40533,16.0745 C21.15833,16.3151667 20.95883,16.6001667 20.80683,16.9295 L20.80683,15.3715 C20.3761633,15.4601667 19.90433,15.5266667 19.39133,15.571 C18.87833,15.6153333 18.33683,15.6375 17.76683,15.6375 C17.38683,15.6375 16.9941633,15.6185 16.58883,15.5805 L16.58883,15.9795 C17.0194966,15.9795 17.3171633,16.1156667 17.48183,16.388 C17.6464966,16.6603333 17.72883,17.0815 17.72883,17.6515 L17.72883,28.6555 C17.72883,29.1875 17.64333,29.5485 17.47233,29.7385 C17.30133,29.9285 17.00683,30.0235 16.58883,30.0235 L16.58883,30.4225 C16.85483,30.4098333 17.26333,30.394 17.81433,30.375 C18.36533,30.356 18.9131633,30.3465 19.45783,30.3465 C20.06583,30.3465 20.65483,30.356 21.22483,30.375 C21.79483,30.394 22.2254966,30.4098333 22.51683,30.4225 L22.51683,30.0235 Z" id="Path-Copy-7" fill="#FFFFFF" fill-rule="nonzero"></path>
        <path d="M26.2400841,30.6855 C26.9114174,30.6855 27.5099174,30.562 28.0355841,30.315 C28.5612508,30.068 28.9760841,29.6595 29.2800841,29.0895 L29.2800841,30.6285 C29.7234174,30.5271667 30.1952508,30.4575 30.6955841,30.4195 C31.1959174,30.3815 31.7374174,30.3625 32.3200841,30.3625 C32.7127508,30.3625 33.1054174,30.3815 33.4980841,30.4195 L33.4980841,30.0205 C33.0800841,30.0205 32.7855841,29.8843333 32.6145841,29.612 C32.4435841,29.3396667 32.3580841,28.9185 32.3580841,28.3485 L32.3580841,15.3685 C31.9274174,15.4571667 31.4587508,15.5236667 30.9520841,15.568 C30.4454174,15.6123333 29.9007508,15.6345 29.3180841,15.6345 C28.9380841,15.6345 28.5454174,15.6155 28.1400841,15.5775 L28.1400841,15.9765 C28.5707508,15.9765 28.8684174,16.1126667 29.0330841,16.385 C29.1977508,16.6573333 29.2800841,17.0785 29.2800841,17.6485 L29.2800841,27.9875 C29.2800841,28.3295 29.2040841,28.6366667 29.0520841,28.909 C28.9000841,29.1813333 28.7037508,29.3935 28.4630841,29.5455 C28.2224174,29.6975 27.9564174,29.7735 27.6650841,29.7735 C27.4117508,29.7735 27.2090841,29.7165 27.0570841,29.6025 C26.9050841,29.4885 26.7974174,29.3301667 26.7340841,29.1275 C26.6707508,28.9248333 26.6390841,28.6778333 26.6390841,28.3865 L26.6390841,20.3685 C26.2084174,20.4571667 25.7397508,20.5236667 25.2330841,20.568 C24.7264174,20.6123333 24.1817508,20.6345 23.5990841,20.6345 C23.2190841,20.6345 22.8264174,20.6155 22.4210841,20.5775 L22.4210841,20.9765 C22.8517508,20.9765 23.1494174,21.1126667 23.3140841,21.385 C23.4787508,21.6573333 23.5610841,22.0785 23.5610841,22.6485 L23.5610841,27.4745 C23.5610841,28.1078333 23.6054174,28.6176667 23.6940841,29.004 C23.7827508,29.3903333 23.9284174,29.6975 24.1310841,29.9255 C24.3084174,30.1535 24.5649174,30.3371667 24.9005841,30.4765 C25.2362508,30.6158333 25.6827508,30.6855 26.2400841,30.6855 Z" id="Path-Copy-8" fill="#FFFFFF" fill-rule="nonzero"></path>
        <circle id="Oval-Copy-4" fill="#1B27C9" cx="56.797915" cy="17.593377" r="1.84936523"></circle>
        <circle id="Oval-Copy-5" fill="#1B27C9" cx="103.779629" cy="17.593377" r="1.84936523"></circle>
        <circle id="Oval-Copy-6" fill="#B58900" cx="85.8482568" cy="29.4576348" r="1.84936523"></circle>
    </g>
</svg>